<svg width="862" height="70" viewBox="0 0 862 70" fill="none" xmlns="http://www.w3.org/2000/svg">
<g clip-path="url(#clip0_16_32)">
<rect width="861.016" height="70" rx="10" fill="#EC372D"/>
<g opacity="0.2">
<g opacity="0.2" filter="url(#filter0_d_16_32)">
<path d="M172.002 -133C221.892 -133 269.737 -117.003 305.014 -88.5278C340.291 -60.0526 360.11 -21.4321 360.11 18.8378C360.11 59.1076 340.291 97.7282 305.014 126.203C269.737 154.678 221.892 170.676 172.002 170.676H7.40811C1.18344 170.676 -4.78726 168.683 -9.19499 165.135C-13.6027 161.588 -16.0878 156.774 -16.1053 151.749V18.8378C-16.1053 -21.4321 3.71308 -60.0526 38.9901 -88.5278C74.2671 -117.003 122.113 -133 172.002 -133Z" fill="white"/>
</g>
<g style="mix-blend-mode:soft-light">
<path d="M250.453 -70.5657C300.343 -70.5657 348.188 -54.5685 383.465 -26.0934C418.742 2.38167 438.561 41.0022 438.561 81.2721V214.184C438.561 219.217 436.084 224.045 431.674 227.604C427.264 231.164 421.284 233.163 415.047 233.163H250.453C200.555 233.163 152.701 217.163 117.418 188.683C82.1344 160.203 62.3124 121.576 62.3124 81.2989C62.3124 41.0219 82.1344 2.39455 117.418 -26.0856C152.701 -54.5657 200.555 -70.5657 250.453 -70.5657Z" fill="white"/>
</g>
<g style="mix-blend-mode:exclusion" opacity="0.2">
<path d="M97.474 169.925C77.3569 147.307 65.3581 120.648 62.7975 92.8816C60.2369 65.1149 67.2138 37.316 82.9606 12.543C98.7074 -12.2301 122.614 -33.0174 152.051 -47.5324C181.487 -62.0474 215.313 -69.7277 249.808 -69.7284H251.047C281.467 -69.7644 311.437 -63.8009 338.351 -52.3563C353.489 -29.2884 360.981 -3.45308 360.1 22.6416C359.219 48.7362 349.994 74.2037 333.322 96.5718C316.65 118.94 293.097 137.449 264.948 150.301C236.8 163.154 205.013 169.914 172.673 169.925H97.474Z" fill="#0A1C8F"/>
</g>
</g>
</g>
<defs>
<filter id="filter0_d_16_32" x="-32.1053" y="-137" width="408.215" height="335.676" filterUnits="userSpaceOnUse" color-interpolation-filters="sRGB">
<feFlood flood-opacity="0" result="BackgroundImageFix"/>
<feColorMatrix in="SourceAlpha" type="matrix" values="0 0 0 0 0 0 0 0 0 0 0 0 0 0 0 0 0 0 127 0" result="hardAlpha"/>
<feOffset dy="12"/>
<feGaussianBlur stdDeviation="8"/>
<feColorMatrix type="matrix" values="0 0 0 0 0.137255 0 0 0 0 0.0431373 0 0 0 0 0.627451 0 0 0 0.239 0"/>
<feBlend mode="normal" in2="BackgroundImageFix" result="effect1_dropShadow_16_32"/>
<feBlend mode="normal" in="SourceGraphic" in2="effect1_dropShadow_16_32" result="shape"/>
</filter>
<clipPath id="clip0_16_32">
<rect width="861.016" height="70" rx="10" fill="white"/>
</clipPath>
</defs>
</svg>
