<svg width="7" height="15" viewBox="0 0 7 15" fill="none" xmlns="http://www.w3.org/2000/svg">
<path d="M1.427 0.15625C1.56767 0.173251 1.70294 0.223739 1.82349 0.303711C1.94263 0.382791 2.04482 0.488778 2.12524 0.613281L6.22974 6.59863L6.28052 6.67773C6.39155 6.86753 6.45042 7.0909 6.45044 7.31836C6.45044 7.57825 6.37346 7.83279 6.22974 8.03809L6.22876 8.03906L1.97974 14.0254C1.88149 14.1645 1.75454 14.2773 1.60864 14.3516C1.46584 14.4242 1.30923 14.4565 1.15161 14.4473C0.910825 14.4478 0.681825 14.3496 0.503174 14.1758C0.402774 14.0781 0.320407 13.9594 0.260986 13.8271C0.201624 13.6949 0.166107 13.5506 0.154541 13.4033C0.14302 13.2561 0.156074 13.1076 0.193604 12.9658C0.231113 12.8242 0.291974 12.6913 0.374268 12.5752L0.375244 12.5742L4.12134 7.31152L0.509033 2.04004V2.03906C0.428236 1.92189 0.368126 1.78854 0.332275 1.64648C0.296294 1.50388 0.284738 1.35443 0.298096 1.20703C0.311467 1.05977 0.350237 0.916596 0.411377 0.785156C0.47258 0.65364 0.555557 0.535593 0.657471 0.439453C0.758839 0.336059 0.878532 0.256458 1.01001 0.207031C1.14376 0.156806 1.2862 0.139267 1.427 0.15625Z" fill="#2B2C34" stroke="#2B2C34" stroke-width="0.3"/>
</svg>
