<svg width="104" height="216" viewBox="0 0 104 216" fill="none" xmlns="http://www.w3.org/2000/svg">
<path d="M49.8156 2.6021C50.044 3.44147 50.3009 4.49073 50.7177 5.66589C50.9118 6.25342 51.1402 6.88305 51.3515 7.55458C51.4599 7.89032 51.5627 8.24708 51.6883 8.60379C51.8368 8.96055 51.9852 9.31726 52.1337 9.695C52.4249 10.4505 52.7446 11.2269 53.0587 12.0453C53.3556 12.8637 53.7952 13.724 54.1778 14.6054C54.3662 15.0461 54.5775 15.4868 54.7887 15.9485C54.9771 16.4102 55.2112 16.8718 55.4396 17.3335C55.9021 18.2778 56.3874 19.2431 56.8956 20.2504C59.0024 24.2376 61.5946 28.6443 64.6893 33.345C66.9046 36.7655 69.3883 40.3329 72.0262 44.0892C73.0368 45.5162 74.0646 46.9849 75.1209 48.4539C78.9121 53.8261 83.0002 59.534 86.9399 65.6619C88.944 68.7671 90.8396 71.9362 92.6496 75.2727C93.5574 76.9307 94.4424 78.63 95.2874 80.3299C96.1096 82.0507 96.909 83.8133 97.6455 85.5974C99.1186 89.1645 100.472 92.8582 101.437 96.6565C101.568 97.1387 101.671 97.6005 101.796 98.0833L101.968 98.7967L102.048 99.1534L102.093 99.3423L102.156 99.5944L102.43 100.937L102.556 101.609L102.681 102.364L102.933 103.875L103.144 105.344C103.292 106.33 103.378 107.316 103.464 108.303C103.755 112.248 103.652 116.256 103.167 120.222C102.681 124.21 101.648 128.133 100.215 131.953C99.8609 132.897 99.4384 133.841 99.0387 134.786L98.365 136.171L97.9425 137.01L97.6055 137.619L96.9318 138.815L96.595 139.424L96.1724 140.116L95.3045 141.48C95.0134 141.941 94.7165 142.403 94.4196 142.802C92.0843 146.181 89.4065 149.286 86.5002 152.098C80.7277 157.743 74.2587 162.276 67.9152 166.116C67.4528 166.389 66.9674 166.662 66.5049 166.956C65.1746 164.081 63.6387 160.996 61.8459 157.575C66.7562 153.798 71.5409 149.643 75.6462 145.026C77.1421 143.306 78.5752 141.522 79.8599 139.675C80.094 139.339 80.3281 139.004 80.5565 138.647C80.9162 138.122 81.2759 137.598 81.5899 137.052C81.824 136.695 82.0124 136.381 82.178 136.045L82.7262 135.058L83.0002 134.555L83.2971 133.946L83.9081 132.708L84.2049 132.099C84.2049 132.099 84.1193 132.288 84.1593 132.163V132.099L84.2449 131.953L84.3706 131.68L84.8559 130.589C85.1528 129.854 85.4268 129.099 85.7009 128.344C87.7221 122.279 88.4358 115.69 87.8706 109.1C87.8078 108.282 87.745 107.443 87.6365 106.624L87.488 105.386L87.2996 104.211L87.2139 103.623L87.0884 102.952L86.8371 101.609L86.289 99.2162C85.4668 95.9425 84.479 92.6694 83.2572 89.4375C82.0296 86.2057 80.6649 83.0162 79.1861 79.8895C77.713 76.7628 76.0915 73.657 74.4871 70.614C71.1812 64.5075 67.7896 58.569 64.6721 52.8396C64.1868 51.9376 63.7015 51.0562 63.239 50.1748C60.6868 45.3902 58.3687 40.7526 56.4331 36.3458C54.1321 31.0996 52.3849 26.1681 51.1631 21.7403C50.6149 19.495 50.0439 17.4384 49.7699 15.4868C49.6043 14.5215 49.393 13.5982 49.3074 12.6958C49.2046 11.7935 49.119 10.9541 49.0333 10.1357C48.8221 8.54081 48.8449 7.05095 48.805 5.79184C48.805 5.16232 48.7421 4.57468 48.805 4.05008C48.8221 3.52548 48.8678 3.04282 48.8849 2.62313C48.9934 0.902348 49.0562 0 49.0562 0C49.0562 0 49.3074 0.902347 49.7699 2.56016L49.8156 2.6021Z" fill="#EC372D"/>
<path d="M8.29507 74.3076C8.59197 73.8457 8.88887 73.3838 9.18006 72.9853C11.521 69.607 14.1989 66.5012 17.1051 63.6888C22.9004 58.0443 29.3467 53.5116 35.6901 49.6712C36.1526 49.3984 36.6379 49.1255 37.1004 48.8528C38.4308 51.7277 39.9667 54.8124 41.7595 58.2331C36.8492 62.0104 32.0645 66.1654 27.9592 70.7817C25.7438 73.3211 23.6998 75.965 21.9926 78.756C21.7642 79.1127 21.5701 79.4275 21.4045 79.7633L20.8564 80.7498L20.5823 81.2535L20.2854 81.8617L19.6745 83.0998L19.3833 83.6877C19.3833 83.6877 19.4632 83.5198 19.4233 83.6244V83.6877L19.3376 83.8347L19.212 84.1071L18.7267 85.1987C18.4355 85.9331 18.1614 86.6883 17.8873 87.4441C15.8604 93.5087 15.1467 100.076 15.712 106.687C15.7805 107.505 15.8433 108.345 15.9461 109.163L16.0945 110.401L16.2829 111.576L16.3686 112.164L16.4942 112.835L16.7454 114.179L17.2935 116.571C18.1157 119.845 19.1092 123.118 20.3311 126.35C21.553 129.581 22.9233 132.771 24.3964 135.898C25.8695 139.024 27.491 142.13 29.0955 145.173C32.4014 151.28 35.7986 157.219 38.9161 162.948C39.6526 164.312 40.3892 165.675 41.1086 167.039L41.3142 167.438C41.377 167.564 41.4455 167.669 41.5083 167.795C41.6739 168.131 41.8451 168.467 42.0107 168.781C42.1991 169.138 42.3704 169.494 42.5588 169.83C42.6216 169.935 42.6674 170.04 42.7302 170.166C43.0842 170.858 43.421 171.53 43.7407 172.181C43.7636 172.223 43.7807 172.286 43.8264 172.328C44.5629 173.839 45.2596 175.287 45.9105 176.692L46.3101 177.574C46.607 178.203 46.8811 178.833 47.1551 179.441C49.4504 184.688 51.1976 189.619 52.4195 194.047C52.9676 196.292 53.5386 198.349 53.8126 200.3C53.9782 201.266 54.1895 202.189 54.2751 203.092C54.3836 203.994 54.4636 204.833 54.5492 205.651C54.7605 207.247 54.7376 208.736 54.7833 209.995C54.7833 210.625 54.8461 211.212 54.7833 211.737C54.7605 212.261 54.7205 212.744 54.6976 213.164C54.5891 214.885 54.5263 215.787 54.5263 215.787C54.5263 215.787 54.2751 214.885 53.8126 213.227C53.5785 212.388 53.3273 211.338 52.9048 210.163C52.7164 209.576 52.4823 208.946 52.271 208.274C52.1683 207.939 52.0655 207.582 51.9342 207.225C51.7914 206.868 51.643 206.512 51.4945 206.134C51.1976 205.379 50.8836 204.602 50.5695 203.784C50.2726 202.966 49.8273 202.105 49.4504 201.224C49.262 200.783 49.0508 200.343 48.8395 199.881C48.6511 199.419 48.417 198.957 48.1886 198.496C47.7204 197.552 47.2351 196.586 46.7326 195.579C44.6258 191.592 42.0336 187.185 38.9332 182.485C35.8614 177.763 32.3214 172.726 28.5073 167.375C24.7104 162.003 20.6223 156.295 16.6826 150.168C14.6842 147.062 12.7886 143.893 10.9729 140.556C10.0651 138.899 9.18009 137.199 8.34077 135.499C7.51857 133.778 6.71921 132.016 5.97695 130.232C4.50386 126.665 3.15636 122.971 2.18572 119.173C2.06011 118.69 1.95735 118.228 1.82603 117.746L1.66046 117.032L1.57481 116.676L1.53482 116.487L1.47201 116.235L1.19796 114.892L1.07233 114.22L0.941039 113.465L0.689777 111.954L0.478548 110.485C0.330096 109.499 0.250159 108.513 0.164514 107.527C-0.132389 103.581 -0.0238942 99.5733 0.461428 95.6072C0.941041 91.6201 1.97449 87.6957 3.40762 83.8765C3.76732 82.9319 4.18985 81.9878 4.58952 81.0437L5.26324 79.6587L5.68574 78.8193L6.02265 78.2104L6.69637 77.0142L7.03323 76.406L7.45577 75.7135L8.31794 74.3494L8.29507 74.3076Z" fill="#195A7D"/>
<path d="M48.8071 56.1138C53.6718 56.1138 57.6172 52.8537 57.6172 48.8322C57.6172 44.8107 53.6718 41.5505 48.8071 41.5505C43.9425 41.5505 40.0028 44.8107 40.0028 48.8322C40.0028 52.8537 43.9425 56.1138 48.8071 56.1138Z" fill="#195A7D"/>
<path d="M54.8001 174.301C59.6647 174.301 63.6101 171.041 63.6101 167.019C63.6101 162.997 59.6647 159.738 54.8001 159.738C49.9354 159.738 45.9957 162.997 45.9957 167.019C45.9957 171.041 49.9354 174.301 54.8001 174.301Z" fill="#EC372D"/>
<path d="M49.9811 139.025C34.662 139.025 22.2092 126.581 22.2092 111.262C22.2092 90.5709 44.1001 76.994 62.8108 86.5629C67.8924 89.2278 72.0661 93.4037 74.6983 98.4824C84.1992 116.55 71.0955 139.004 49.9811 139.004V139.025Z" fill="url(#paint0_radial_23_24)"/>
<path d="M50.0004 136.318C36.1773 136.318 24.9235 125.091 24.9235 111.262C24.9235 92.5858 44.6904 80.3305 61.5853 88.9763C84.9151 101.273 76.0023 136.318 50.0004 136.318Z" fill="url(#paint1_radial_23_24)"/>
<path style="mix-blend-mode:screen" d="M50.0139 103.204L53.3426 84.9049L51.9951 103.455L59.7489 86.5629L53.8279 104.19L65.5613 89.7524L55.4495 105.365L70.4088 94.285L56.7114 106.897L73.9489 99.8883L57.5792 108.702L76.0158 106.184L57.9332 110.653L76.4154 112.794L57.8076 112.626L75.1708 119.32L57.1967 114.535L72.3673 125.322L56.1232 116.214L68.1307 130.421L54.6673 117.558L62.7579 134.325L52.943 118.523L56.5857 136.759L51.0017 119.026L50.0139 137.598L49.0204 119.026L43.4363 136.759L47.0848 118.523L37.2642 134.325L45.3548 117.558L31.8914 130.421L43.8988 116.214L27.6548 125.322L42.8254 114.535L24.8342 119.32L42.2145 112.626L23.6066 112.794L42.0889 110.653L24.012 106.184L42.4657 108.702L26.0732 99.8883L43.3107 106.897L29.6132 94.285L44.5726 105.365L34.4607 89.7524L46.177 104.19L40.2789 86.5629L48.0326 103.455L46.7023 84.9049L50.0139 103.204Z" fill="url(#paint2_radial_23_24)"/>
<g style="mix-blend-mode:multiply">
<path d="M63.6868 111.241C63.6868 118.795 57.5546 124.923 50.0121 124.923C42.4639 124.923 36.3317 118.817 36.3317 111.241C36.3317 103.666 42.4639 97.5801 50.0121 97.5801C57.5546 97.5801 63.6868 103.707 63.6868 111.241Z" fill="#1F1A4E"/>
</g>
<path style="mix-blend-mode:screen" d="M45.6936 121.46C45.6936 124.377 43.3127 126.748 40.4065 126.748C37.5002 126.748 35.1136 124.377 35.1136 121.46C35.1136 118.543 37.5002 116.172 40.4065 116.172C43.3127 116.172 45.6936 118.543 45.6936 121.46Z" fill="url(#paint3_linear_23_24)"/>
<path style="mix-blend-mode:screen" d="M74.6907 98.5037C73.6801 102.994 69.6548 106.352 64.87 106.352C59.3488 106.352 54.9009 101.903 54.9009 96.4047C54.9009 91.6205 58.2982 87.5492 62.8031 86.6051C67.8848 89.27 72.0585 93.4459 74.6907 98.5246V98.5037Z" fill="url(#paint4_linear_23_24)"/>
<defs>
<radialGradient id="paint0_radial_23_24" cx="0" cy="0" r="1" gradientUnits="userSpaceOnUse" gradientTransform="translate(50.0211 105.995) scale(28.32 28.2036)">
<stop stop-color="#EFF0F0"/>
<stop offset="0.15" stop-color="#EAEBEB"/>
<stop offset="0.34" stop-color="#DBDCDD"/>
<stop offset="0.46" stop-color="#CECFD1"/>
<stop offset="0.5" stop-color="#C7CBD0"/>
<stop offset="0.56" stop-color="#B5C2CD"/>
<stop offset="0.64" stop-color="#97B4C9"/>
<stop offset="0.72" stop-color="#6E9FC3"/>
<stop offset="0.81" stop-color="#3985BC"/>
<stop offset="0.85" stop-color="#1975B8"/>
<stop offset="1" stop-color="#D8D9DA"/>
</radialGradient>
<radialGradient id="paint1_radial_23_24" cx="0" cy="0" r="1" gradientUnits="userSpaceOnUse" gradientTransform="translate(47.3454 114.179) scale(30.6168 30.491)">
<stop stop-color="#EFF0F0"/>
<stop offset="0.15" stop-color="#EAEBEB"/>
<stop offset="0.34" stop-color="#DBDCDD"/>
<stop offset="0.46" stop-color="#CECFD1"/>
<stop offset="0.5" stop-color="#C7CBD0"/>
<stop offset="0.56" stop-color="#B5C2CD"/>
<stop offset="0.64" stop-color="#97B4C9"/>
<stop offset="0.72" stop-color="#6E9FC3"/>
<stop offset="0.81" stop-color="#3985BC"/>
<stop offset="0.85" stop-color="#1975B8"/>
<stop offset="1" stop-color="#D8D9DA"/>
</radialGradient>
<radialGradient id="paint2_radial_23_24" cx="0" cy="0" r="1" gradientUnits="userSpaceOnUse" gradientTransform="translate(50.0139 107.59) scale(26.3815 26.2731)">
<stop stop-color="#BDDDEC"/>
<stop offset="0.11" stop-color="#B8DBEC"/>
<stop offset="0.23" stop-color="#A9D8EE"/>
<stop offset="0.37" stop-color="#91D3F1"/>
<stop offset="0.46" stop-color="#7FCFF4"/>
<stop offset="0.53" stop-color="#71C3EC"/>
<stop offset="0.67" stop-color="#4EA4D7"/>
<stop offset="0.85" stop-color="#1975B8"/>
<stop offset="1" stop-color="#D8D9DA"/>
</radialGradient>
<linearGradient id="paint3_linear_23_24" x1="43.0386" y1="115.983" x2="36.2353" y2="130.211" gradientUnits="userSpaceOnUse">
<stop stop-color="#EFF0F0"/>
<stop offset="0.15" stop-color="#EAEBEB"/>
<stop offset="0.34" stop-color="#DBDCDD"/>
<stop offset="0.46" stop-color="#CECFD1"/>
<stop offset="0.5" stop-color="#C7CBD0"/>
<stop offset="0.56" stop-color="#B5C2CD"/>
<stop offset="0.64" stop-color="#97B4C9"/>
<stop offset="0.72" stop-color="#6E9FC3"/>
<stop offset="0.81" stop-color="#3985BC"/>
<stop offset="0.85" stop-color="#1975B8"/>
<stop offset="1" stop-color="#D8D9DA"/>
</linearGradient>
<linearGradient id="paint4_linear_23_24" x1="54.5641" y1="107.422" x2="72.8616" y2="87.7052" gradientUnits="userSpaceOnUse">
<stop stop-color="#EFF0F0"/>
<stop offset="0.15" stop-color="#EAEBEB"/>
<stop offset="0.34" stop-color="#DBDCDD"/>
<stop offset="0.46" stop-color="#CECFD1"/>
<stop offset="0.5" stop-color="#C7CBD0"/>
<stop offset="0.56" stop-color="#B5C2CD"/>
<stop offset="0.64" stop-color="#97B4C9"/>
<stop offset="0.72" stop-color="#6E9FC3"/>
<stop offset="0.81" stop-color="#3985BC"/>
<stop offset="0.85" stop-color="#1975B8"/>
<stop offset="1" stop-color="#D8D9DA"/>
</linearGradient>
</defs>
</svg>
