<svg width="85" height="85" viewBox="0 0 85 85" fill="none" xmlns="http://www.w3.org/2000/svg">
<g clip-path="url(#clip0_596_821)">
<path d="M56.3184 42.2197C48.4374 42.2196 41.1637 44.382 35.7624 48.7131C30.361 53.0443 26.9643 59.6234 26.9644 67.7032V67.7097V67.7163C26.9652 67.8366 26.9776 74.9609 26.9776 74.9609L26.9644 84.6501H84.9025L84.9511 74.9609C84.9511 74.9609 84.9609 71.46 84.9642 70.1163C84.9675 68.7726 84.9804 67.6557 84.9771 67.7545V67.7284V67.7022C84.9771 58.813 80.8844 52.1835 75.2752 48.0819C69.666 43.9803 62.6571 42.2188 56.3234 42.2188L56.3184 42.2197ZM56.3184 47.1089C61.7213 47.1089 67.8211 48.6962 72.3801 52.0299C76.939 55.3635 80.083 60.2575 80.083 67.7032C80.0765 68.056 80.0731 68.78 80.0699 70.0968C80.0666 71.4416 80.0635 73.1969 80.0569 74.9478C80.0504 76.6894 80.0407 78.423 80.0309 79.7605H31.8842C31.8777 78.423 31.8678 76.6871 31.8645 74.9478C31.8548 71.4552 31.8549 68.0856 31.8516 67.7032C31.8515 60.9469 34.4775 56.0053 38.8161 52.5264C43.1546 49.0476 49.3368 47.1088 56.3184 47.1089Z" fill="#986D53"/>
<path d="M56.3184 0.42627C46.0239 0.42627 37.6276 8.80833 37.6276 19.0916C37.6276 29.3749 46.0239 37.7633 56.3184 37.7633C66.6129 37.7633 75.0156 29.3749 75.0156 19.0916C75.0156 8.80833 66.6129 0.42627 56.3184 0.42627ZM56.3184 5.31542C63.9753 5.31542 70.1265 11.4553 70.1265 19.0916C70.1265 26.7279 63.9753 32.8742 56.3184 32.8742C48.6615 32.8742 42.5168 26.7279 42.5168 19.0916C42.5168 11.4553 48.6615 5.31542 56.3184 5.31542Z" fill="#986D53"/>
<path d="M25.6594 44.1611C18.3136 44.1609 11.8958 46.2012 7.29327 50.3171C2.69076 54.433 0.0795604 60.5728 0.0805056 68.0148V68.0214V68.028C0.0811575 68.1577 0.0936357 75.1134 0.0936357 75.1134L0.142774 84.6498H20.1539H22.8657V79.7606H20.1539H4.99631C4.98979 78.4576 4.98664 76.791 4.98338 75.107C4.97686 71.6746 4.97351 68.3259 4.97025 68.0025C4.97256 61.6734 7.03878 57.1082 10.5533 53.9653C14.0679 50.8223 19.2101 49.053 25.6473 49.0507C26.3747 49.0572 28.5307 49.2683 28.5307 49.2683C28.5307 49.2683 31.019 46.2979 32.147 44.8616L29.7343 44.486C28.3916 44.2771 27.0322 44.1692 25.6727 44.1613H25.6662L25.6594 44.1611Z" fill="#986D53"/>
<path d="M25.4147 6.73309C16.1286 6.6679 8.48694 14.1823 8.42465 23.4568C8.36142 32.7313 15.9008 40.3483 25.1869 40.4088C29.2041 40.4317 33.0795 39.0194 36.1316 36.4595C36.5025 36.1489 36.8577 35.8228 37.2015 35.4799L38.4429 34.2326L35.4795 30.2925L34.1687 31.6515C33.9284 31.9005 33.2547 32.4946 32.9929 32.714C30.8256 34.5319 28.0681 35.537 25.2136 35.5199C18.5645 35.4765 13.2686 30.1157 13.3138 23.4898C13.3585 16.8638 18.7262 11.5754 25.3753 11.622C27.4025 11.6351 29.3977 12.1602 31.1645 13.1509L33.2955 14.3495C33.2955 14.3495 34.8241 10.3553 35.0392 9.73807L33.5553 8.889C31.0682 7.49439 28.2669 6.75356 25.4147 6.73309Z" fill="#986D53"/>
</g>
<defs>
<clipPath id="clip0_596_821">
<rect width="85" height="85" fill="white"/>
</clipPath>
</defs>
</svg>
